<svg width="22" height="29" viewBox="0 0 22 29" fill="none" xmlns="http://www.w3.org/2000/svg">
<path fill-rule="evenodd" clip-rule="evenodd" d="M7.30447 28L20.8044 14.5001L7.30437 1H1L14.5687 14.5687L1.13742 28H7.30447Z" fill="url(#paint0_linear_299_500)"/>
<path d="M7.30447 28V28.15H7.3666L7.41054 28.1061L7.30447 28ZM20.8044 14.5001L20.9105 14.6061L21.0166 14.5001L20.9105 14.394L20.8044 14.5001ZM7.30437 1L7.41044 0.893934L7.3665 0.85H7.30437V1ZM1 1V0.85H0.637868L0.893934 1.10607L1 1ZM14.5687 14.5687L14.6748 14.6748L14.7808 14.5687L14.6748 14.4626L14.5687 14.5687ZM1.13742 28L1.03135 27.8939L0.775285 28.15H1.13742V28ZM7.41054 28.1061L20.9105 14.6061L20.6984 14.394L7.19841 27.8939L7.41054 28.1061ZM7.19831 1.10607L20.6984 14.6061L20.9105 14.394L7.41044 0.893934L7.19831 1.10607ZM1 1.15H7.30437V0.85H1V1.15ZM14.6748 14.4626L1.10607 0.893934L0.893934 1.10607L14.4626 14.6748L14.6748 14.4626ZM1.24348 28.1061L14.6748 14.6748L14.4626 14.4626L1.03135 27.8939L1.24348 28.1061ZM7.30447 27.85H1.13742V28.15H7.30447V27.85Z" fill="url(#paint1_linear_299_500)"/>
<defs>
<linearGradient id="paint0_linear_299_500" x1="0.267249" y1="14.5" x2="20.8044" y2="14.5" gradientUnits="userSpaceOnUse">
<stop stop-color="#E31937"/>
<stop offset="1" stop-color="#5236AB"/>
</linearGradient>
<linearGradient id="paint1_linear_299_500" x1="0.267249" y1="14.5" x2="20.8044" y2="14.5" gradientUnits="userSpaceOnUse">
<stop stop-color="#E31937"/>
<stop offset="1" stop-color="#5236AB"/>
</linearGradient>
</defs>
</svg>
