<svg width="81" height="38" viewBox="0 0 81 38" fill="none" xmlns="http://www.w3.org/2000/svg">
<path d="M20.128 7.32859C12.755 7.32859 8.23398 13.1364 8.23398 18.9989C8.23398 26.0569 13.9393 30.6703 20.1821 30.6703C24.3267 30.6703 28.255 28.8256 31.5916 25.8399V34.5789C28.0938 36.6952 23.3035 38 19.5905 38C8.93377 37.9977 0 29.2575 0 18.9989C0 8.14237 8.98785 0 19.6435 0C23.734 0 28.5243 1.24795 31.6457 2.8221V11.3998C27.7174 8.79362 23.7351 7.32859 20.128 7.32859ZM54.2505 37.9977C43.5397 37.9977 34.4978 29.5849 34.4978 18.9989C34.4978 8.3049 43.4868 0 54.7362 0C58.8279 0 63.8863 1.08542 67.0089 2.55159V11.0724C63.4548 9.00957 58.8808 7.32745 54.8962 7.32745C47.5232 7.32745 42.734 13.1353 42.734 18.9977C42.734 25.8921 48.3852 30.8862 55.0055 30.8862C56.404 30.8862 57.7495 30.7771 59.4724 30.1259V23.286H53.4437V16.0654H67.2219V35.2825C63.2936 37.0748 58.8797 37.9977 54.2505 37.9977ZM73.2506 37.2385V0.759227H81V37.2385H73.2506Z" fill="white"/>
</svg>
