<svg width="295" height="96" viewBox="0 0 295 96" fill="none" xmlns="http://www.w3.org/2000/svg">
<g filter="url(#filter0_d_588_1714)">
<rect x="38" y="34" width="27.0935" height="4.36992" fill="#03001F"/>
<rect x="38" y="45.3618" width="27.0935" height="4.36992" fill="#03001F"/>
<rect x="38" y="56.7236" width="27.0935" height="4.36992" fill="#03001F"/>
<rect x="150.744" y="34" width="27.0935" height="4.36992" fill="#03001F"/>
<rect x="150.744" y="45.3618" width="27.0935" height="4.36992" fill="#03001F"/>
<rect x="150.744" y="56.7236" width="27.0935" height="4.36992" fill="#03001F"/>
<rect x="113.162" y="34" width="27.0935" height="4.36992" fill="#03001F"/>
<rect x="124.524" y="38.3706" width="4.36992" height="22.7236" fill="#03001F"/>
<rect x="225.906" y="34" width="4.36992" height="27.0935" fill="#03001F"/>
<path d="M248.629 34H252.999V61.0935H248.629V49.7317H237.268V45.3618H248.629V34Z" fill="#03001F"/>
<rect x="188.325" y="34" width="27.0935" height="4.36992" fill="#03001F"/>
<path d="M188.325 56.7236V45.3618H192.695V56.7236H215.419V61.0935H188.325V56.7236Z" fill="#03001F"/>
<path d="M75.5811 52.354L84.3209 61.0938H75.5811V52.354Z" fill="#03001F"/>
<path d="M102.674 52.354V61.0938H93.9346L102.674 52.354Z" fill="#03001F"/>
<path d="M75.5811 34L89.1278 47.9837L102.675 34V42.7398L89.1278 56.2866L75.5811 42.7398V34Z" fill="url(#paint0_linear_588_1714)"/>
</g>
<defs>
<filter id="filter0_d_588_1714" x="0" y="-4" width="294.999" height="107.094" filterUnits="userSpaceOnUse" color-interpolation-filters="sRGB">
<feFlood flood-opacity="0" result="BackgroundImageFix"/>
<feColorMatrix in="SourceAlpha" type="matrix" values="0 0 0 0 0 0 0 0 0 0 0 0 0 0 0 0 0 0 127 0" result="hardAlpha"/>
<feOffset dx="2" dy="2"/>
<feGaussianBlur stdDeviation="20"/>
<feComposite in2="hardAlpha" operator="out"/>
<feColorMatrix type="matrix" values="0 0 0 0 0.321569 0 0 0 0 0.211765 0 0 0 0 0.670588 0 0 0 0.25 0"/>
<feBlend mode="normal" in2="BackgroundImageFix" result="effect1_dropShadow_588_1714"/>
<feBlend mode="normal" in="SourceGraphic" in2="effect1_dropShadow_588_1714" result="shape"/>
</filter>
<linearGradient id="paint0_linear_588_1714" x1="89.1278" y1="34" x2="89.1278" y2="56.2866" gradientUnits="userSpaceOnUse">
<stop stop-color="#5236AB"/>
<stop offset="1" stop-color="#E31937"/>
</linearGradient>
</defs>
</svg>
